<?xml version="1.0" encoding="UTF-8" standalone="no"?>
<!-- Created with Inkscape (http://www.inkscape.org/) -->

<svg
   width="264.58334mm"
   height="92.192253mm"
   viewBox="0 0 264.58334 92.192253"
   version="1.1"
   id="svg1"
   inkscape:version="1.3.2 (091e20e, 2023-11-25, custom)"
   sodipodi:docname="Blibli (2023).svg"
   xmlns:inkscape="http://www.inkscape.org/namespaces/inkscape"
   xmlns:sodipodi="http://sodipodi.sourceforge.net/DTD/sodipodi-0.dtd"
   xmlns="http://www.w3.org/2000/svg"
   xmlns:svg="http://www.w3.org/2000/svg">
  <sodipodi:namedview
     id="namedview1"
     pagecolor="#ffffff"
     bordercolor="#000000"
     borderopacity="0.25"
     inkscape:showpageshadow="2"
     inkscape:pageopacity="0.0"
     inkscape:pagecheckerboard="0"
     inkscape:deskcolor="#d1d1d1"
     inkscape:document-units="mm"
     inkscape:zoom="1"
     inkscape:cx="523"
     inkscape:cy="192"
     inkscape:window-width="1920"
     inkscape:window-height="1094"
     inkscape:window-x="-11"
     inkscape:window-y="-11"
     inkscape:window-maximized="1"
     inkscape:current-layer="layer1" />
  <defs
     id="defs1" />
  <g
     inkscape:label="Layer 1"
     inkscape:groupmode="layer"
     id="layer1"
     transform="translate(-137.31864,-155.83958)">
    <path
       inkscape:connector-curvature="0"
       id="path1051"
       style="fill:#0071ff;fill-opacity:1;fill-rule:nonzero;stroke:none;stroke-width:2.62125"
       d="m 360.39718,213.71147 c -1.16648,-2.96461 -2.77068,-5.52822 -4.7707,-7.61992 -1.99994,-2.08658 -4.37741,-3.73529 -7.05113,-4.8913 -0.0372,-0.0149 -3.8139,-1.85846 -8.2307,-1.76142 -2.68152,0.0594 -4.14418,0.72371 -5.31066,1.35513 -0.10774,0.0669 -0.21251,0.12855 -0.31951,0.19394 -0.48519,0.32767 -1.70637,1.13497 -2.81259,2.48491 -2.10218,2.57148 -2.38528,6.6632 -1.95016,9.6331 l 0.17313,1.17956 0.86504,-0.7654 c 0.77059,-0.68433 2.20182,-1.69597 4.26477,-2.19922 1.10355,-0.26972 2.26208,-0.2987 3.38926,-0.14415 2.692,0.36706 4.98298,1.53867 6.83097,3.49678 2.24641,2.38795 3.38666,5.47056 3.38666,9.16127 0,3.70118 -1.14553,6.74441 -3.40501,9.03807 -2.26743,2.30139 -5.16911,3.46527 -8.62651,3.46527 -3.4863,0 -6.38538,-1.12978 -8.61611,-3.3631 -3.57531,-3.57272 -3.32372,-10.60818 -3.31845,-10.70774 v -41.50219 c 0,-0.20954 -0.13894,-0.39604 -0.34105,-0.45845 l -1.4417,-0.43765 c -1.24249,-0.37746 -2.67364,-0.56619 -4.25429,-0.56619 -2.14417,0 -3.86369,0.43765 -5.11146,1.30536 -1.11402,0.77587 -1.68021,2.2071 -1.68021,4.2569 v 36.70005 c 0,3.91355 0.39826,7.34211 1.18743,10.19401 0.77588,2.80479 1.8873,5.18487 3.30537,7.08004 2.26744,2.98297 5.20062,5.27916 8.72355,6.83098 3.55704,1.56749 7.57015,2.36172 11.92668,2.36172 3.55964,0 6.90432,-0.59517 9.93975,-1.7667 3.03282,-1.17169 5.69072,-2.82575 7.90042,-4.91745 2.20709,-2.08658 3.96072,-4.66059 5.21629,-7.64883 1.25818,-2.99345 1.89518,-6.3434 1.89518,-9.9581 0,-3.6855 -0.5922,-7.05901 -1.76411,-10.0289" />
    <path
       inkscape:connector-curvature="0"
       id="path1055"
       style="fill:#0071ff;fill-opacity:1;fill-rule:nonzero;stroke:none;stroke-width:2.62125"
       d="m 282.87117,179.88694 c -1.2792,-0.37746 -2.72871,-0.56916 -4.30936,-0.56916 -2.14156,0 -3.86368,0.44062 -5.11138,1.30796 -1.1167,0.77595 -1.68021,2.2071 -1.68021,4.2569 v 61.84309 h 12.92271 v -66.29392 z" />
    <path
       inkscape:connector-curvature="0"
       id="path1059"
       style="fill:#0071ff;fill-opacity:1;fill-rule:nonzero;stroke:none;stroke-width:2.62125"
       d="m 298.80835,193.68517 c 2.03412,0 3.76932,-0.68656 5.15337,-2.0446 1.37876,-1.35254 2.07602,-3.06686 2.07602,-5.09043 0,-2.02884 -0.69993,-3.76151 -2.0839,-5.14548 -1.38397,-1.38404 -3.11664,-2.08391 -5.14549,-2.08391 -2.02624,0 -3.74049,0.69697 -5.09042,2.07603 -1.35782,1.38397 -2.0446,3.11924 -2.0446,5.15336 0,2.03145 0.68433,3.74577 2.03672,5.09831 1.35254,1.35261 3.06686,2.03672 5.0983,2.03672" />
    <path
       inkscape:connector-curvature="0"
       id="path1063"
       style="fill:#0071ff;fill-opacity:1;fill-rule:nonzero;stroke:none;stroke-width:2.62125"
       d="m 299.18581,200.79136 c -2.14416,0 -3.86368,0.43765 -5.10878,1.30803 -1.1167,0.77588 -1.68289,2.20703 -1.68289,4.25423 v 40.37248 h 12.92279 v -44.82071 l -1.82176,-0.54761 c -1.2766,-0.37523 -2.72611,-0.56619 -4.30936,-0.56619" />
    <path
       inkscape:connector-curvature="0"
       id="path1067"
       style="fill:#0071ff;fill-opacity:1;fill-rule:nonzero;stroke:none;stroke-width:2.62125"
       d="m 379.02117,179.88694 c -1.2792,-0.37746 -2.72871,-0.56916 -4.30936,-0.56916 -2.14416,0 -3.86108,0.44062 -5.10878,1.30796 -1.11662,0.77595 -1.68281,2.2071 -1.68281,4.2569 v 61.84309 h 12.92271 v -66.2966 z" />
    <path
       inkscape:connector-curvature="0"
       id="path1071"
       style="fill:#0071ff;fill-opacity:1;fill-rule:nonzero;stroke:none;stroke-width:2.62125"
       d="m 394.67259,193.68517 c 2.03672,0 3.76932,-0.68656 5.15336,-2.0446 1.37616,-1.34994 2.07603,-3.06418 2.07603,-5.09043 0,-2.03144 -0.69994,-3.76151 -2.08391,-5.14548 -1.38397,-1.38404 -3.11664,-2.08391 -5.14548,-2.08391 -2.02625,0 -3.74049,0.69697 -5.09311,2.07603 -1.35514,1.38397 -2.04452,3.11924 -2.04452,5.15336 0,2.03145 0.68656,3.74837 2.03932,5.09831 1.34994,1.35261 3.06686,2.03672 5.09831,2.03672" />
    <path
       inkscape:connector-curvature="0"
       id="path1075"
       style="fill:#0071ff;fill-opacity:1;fill-rule:nonzero;stroke:none;stroke-width:2.62125"
       d="m 395.05005,200.79136 c -2.14417,0 -3.86369,0.43765 -5.11146,1.30803 -1.11403,0.77328 -1.68021,2.20703 -1.68021,4.25423 v 40.37248 h 12.92278 V 201.90539 L 399.35672,201.36 c -1.27392,-0.37745 -2.72343,-0.56841 -4.30667,-0.56841" />
    <path
       inkscape:connector-curvature="0"
       id="path1079"
       style="fill:#0071ff;fill-opacity:1;fill-rule:nonzero;stroke:none;stroke-width:2.62125"
       d="m 264.05065,213.71147 c -1.16648,-2.96461 -2.77069,-5.52822 -4.7707,-7.61992 -1.99994,-2.08658 -4.37742,-3.73529 -7.05114,-4.8913 -0.0371,-0.0149 -3.8139,-1.85846 -8.23069,-1.76142 -2.68153,0.0594 -4.14418,0.72371 -5.31067,1.35513 -0.10774,0.0669 -0.2125,0.12855 -0.3195,0.19394 -0.4852,0.32767 -1.70637,1.13497 -2.81259,2.48491 -2.10218,2.57148 -2.38528,6.6632 -1.95016,9.6331 l 0.17313,1.17956 0.86503,-0.7654 c 0.7706,-0.68433 2.20182,-1.69597 4.26477,-2.19922 1.10355,-0.26972 2.26209,-0.2987 3.38926,-0.14415 2.692,0.36706 4.98299,1.53867 6.83098,3.49678 2.2464,2.38795 3.38666,5.47056 3.38666,9.16127 0,3.70118 -1.14553,6.74441 -3.40501,9.03807 -2.26744,2.30139 -5.16912,3.46527 -8.62651,3.46527 -3.4863,0 -6.38538,-1.12978 -8.61611,-3.3631 -3.57531,-3.57272 -3.32372,-10.60818 -3.31845,-10.70774 v -41.50219 c 0,-0.20954 -0.13895,-0.39604 -0.34105,-0.45845 l -1.4417,-0.43765 c -1.2425,-0.37746 -2.67365,-0.56619 -4.2543,-0.56619 -2.14416,0 -3.86368,0.43765 -5.11145,1.30536 -1.11403,0.77587 -1.68022,2.2071 -1.68022,4.2569 v 36.70005 c 0,3.91355 0.39827,7.34211 1.18744,10.19401 0.77587,2.80479 1.8873,5.18487 3.30537,7.08004 2.26476,2.98297 5.20062,5.27916 8.72355,6.83098 3.55704,1.56749 7.57014,2.36172 11.92668,2.36172 3.55964,0 6.90431,-0.59517 9.93974,-1.7667 3.03283,-1.17169 5.69072,-2.82575 7.90042,-4.91745 2.2071,-2.08658 3.96073,-4.66059 5.2163,-7.64883 1.25817,-2.99345 1.89517,-6.3434 1.89517,-9.9581 0,-3.6855 -0.59219,-7.05901 -1.7641,-10.0289" />
    <path
       inkscape:connector-curvature="0"
       id="path1083"
       style="fill:#0071ff;fill-opacity:1;fill-rule:nonzero;stroke:none;stroke-width:2.62125"
       d="m 200.35303,184.66545 c 0.35888,-2.22285 -1.43383,-4.12323 -3.65661,-4.12323 h -0.28606 c -11.65139,1.14813 -19.14292,1.75623 -26.59774,1.75623 -7.45483,0 -14.98307,-0.57139 -26.59782,-1.75623 h -0.28607 c -2.18874,0 -3.97907,1.90038 -3.65667,4.12323 3.94237,22.76288 3.94237,36.92022 -1.79294,57.53114 -0.71851,2.33029 1.07472,4.48233 3.40502,4.48233 h 57.89024 c 2.33029,0 4.12323,-2.15204 3.40501,-4.48233 -5.7694,-20.61092 -5.7694,-34.76826 -1.82703,-57.53114" />
    <path
       inkscape:connector-curvature="0"
       id="path1087"
       style="fill:#ffffff;fill-opacity:1;fill-rule:nonzero;stroke:none;stroke-width:2.62125"
       d="m 157.98372,199.58817 c 1.54127,0 2.76013,-1.28967 2.76013,-2.68939 0,-1.46794 -1.21886,-2.6868 -2.76013,-2.6868 -1.54127,0 -2.61599,1.21886 -2.61599,2.6868 0,1.43382 1.07472,2.68939 2.61599,2.68939" />
    <path
       inkscape:connector-curvature="0"
       id="path1091"
       style="fill:#ffffff;fill-opacity:1;fill-rule:nonzero;stroke:none;stroke-width:2.62125"
       d="m 181.42685,199.58817 c 1.54127,0 2.76014,-1.28967 2.76014,-2.68939 0,-1.46794 -1.21887,-2.6868 -2.76014,-2.6868 -1.54127,0 -2.61599,1.21886 -2.61599,2.6868 0,1.43382 1.07472,2.68939 2.61599,2.68939" />
    <path
       inkscape:connector-curvature="0"
       id="path1095"
       style="fill:#ffffff;fill-opacity:1;fill-rule:nonzero;stroke:none;stroke-width:2.62125"
       d="m 169.77673,220.63154 c -11.29236,0 -14.94636,-9.85585 -14.94636,-14.62395 0,-1.00391 0.78635,-1.79294 1.79033,-1.79294 1.00391,0 1.79294,0.78903 1.79294,1.79294 0,3.58326 2.76013,11.04069 11.36309,11.04069 8.56625,0 11.36309,-7.42072 11.36309,-11.04069 0,-1.00391 0.78902,-1.79294 1.79293,-1.79294 1.00398,0 1.79293,0.78903 1.79293,1.79294 0,4.80213 -3.6566,14.62395 -14.94895,14.62395" />
    <path
       inkscape:connector-curvature="0"
       id="path1099"
       style="fill:#ffcd00;fill-opacity:1;fill-rule:nonzero;stroke:none;stroke-width:2.62125"
       d="m 175.58775,170.96419 c 4.1756,0 7.56226,-3.38666 7.56226,-7.56227 0,-4.17568 -3.38666,-7.56234 -7.56226,-7.56234 -4.17561,0 -7.56227,3.38666 -7.56227,7.56234 0,4.17561 3.38666,7.56227 7.56227,7.56227" />
    <path
       inkscape:connector-curvature="0"
       id="path1103"
       style="fill:#00cdc6;fill-opacity:1;fill-rule:nonzero;stroke:none;stroke-width:2.62125"
       d="m 193.55088,178.27747 0.27269,-7.53872 c 0.0914,-2.51902 -2.6868,-4.09699 -4.80213,-2.7287 l -14.10227,9.11408 c -0.99871,0.64718 -1.60688,1.58845 -1.85327,2.60551 5.74058,-0.13597 11.8743,-0.62117 20.48505,-1.45217" />
    <path
       inkscape:connector-curvature="0"
       id="path1107"
       style="fill:#ff4646;fill-opacity:1;fill-rule:nonzero;stroke:none;stroke-width:2.62125"
       d="m 146.51267,178.32725 c 9.21632,0.90694 16.20712,1.42855 23.12199,1.43903 l -3.30277,-10.95941 c -0.62935,-2.0839 -2.82827,-3.26079 -4.90958,-2.63434 l -13.25566,3.99743 c -2.08123,0.62935 -3.26079,2.82567 -2.63434,4.90958 z" />
  </g>
</svg>
